<?xml version="1.0" encoding="UTF-8"?>
<svg version="1.1" xmlns="http://www.w3.org/2000/svg" width="50" height="50">
<path d="M0 0 C16.5 0 33 0 50 0 C50 16.5 50 33 50 50 C33.5 50 17 50 0 50 C0 33.5 0 17 0 0 Z " fill="#FEFEFE" transform="translate(0,0)"/>
<path d="M0 0 C0.99 0 1.98 0 3 0 C3.33 0.66 3.66 1.32 4 2 C4.66 1.34 5.32 0.68 6 0 C8.4375 -0.375 8.4375 -0.375 11 0 C12.8125 1.8125 12.8125 1.8125 14 4 C14 4.99 14 5.98 14 7 C13.67 7.33 13.34 7.66 13 8 C13.99 9.485 13.99 9.485 15 11 C17.58380177 11.25030977 17.58380177 11.25030977 20 11 C20.33 10.34 20.66 9.68 21 9 C20.34 8.67 19.68 8.34 19 8 C20.32 8 21.64 8 23 8 C22.125 12.875 22.125 12.875 21 14 C18.07655317 14.13288395 15.43388943 14.08900296 12.5625 13.5 C9.34591293 12.87237325 6.26863565 12.9359091 3 13 C3 16.96 3 20.92 3 25 C2.34 25 1.68 25 1 25 C1 21.37 1 17.74 1 14 C0.67 14 0.34 14 0 14 C0 9.38 0 4.76 0 0 Z " fill="#B6B6B6" transform="translate(13,12)"/>
<path d="M0 0 C6.0546875 -0.1953125 6.0546875 -0.1953125 8 0 C10 2 10 2 10 5 C9.01 5.66 8.02 6.32 7 7 C7 8.32 7 9.64 7 11 C5.35 11 3.7 11 2 11 C1.34 9.68 0.68 8.36 0 7 C-0.66 7 -1.32 7 -2 7 C-1.67 6.34 -1.34 5.68 -1 5 C-0.34 5.33 0.32 5.66 1 6 C0.67 4.02 0.34 2.04 0 0 Z " fill="#B396ED" transform="translate(26,13)"/>
<path d="M0 0 C0.99 0.33 1.98 0.66 3 1 C2.125 5.875 2.125 5.875 1 7 C-2.86325822 7.17560265 -6.23073982 6.75385204 -10 6 C-11.9996441 5.96227087 -14.00054061 5.95350094 -16 6 C-16 5.34 -16 4.68 -16 4 C-13 3 -10 2 -7 1 C-6.34 1.99 -5.68 2.98 -5 4 C-2.41619823 4.25030977 -2.41619823 4.25030977 0 4 C0.33 3.34 0.66 2.68 1 2 C0.34 1.67 -0.32 1.34 -1 1 C-0.67 0.67 -0.34 0.34 0 0 Z " fill="#7234ED" transform="translate(33,19)"/>
<path d="M0 0 C0.66 0 1.32 0 2 0 C2.33 0.66 2.66 1.32 3 2 C3.66 1.34 4.32 0.68 5 0 C7.4375 -0.375 7.4375 -0.375 10 0 C11.8125 1.8125 11.8125 1.8125 13 4 C13 4.99 13 5.98 13 7 C12.34 7 11.68 7 11 7 C10.34 5.68 9.68 4.36 9 3 C6.57080135 2.86559222 6.57080135 2.86559222 4 4 C2.61706907 6.55518097 1.78208351 9.20866129 1 12 C0.67 12 0.34 12 0 12 C0 8.04 0 4.08 0 0 Z " fill="#0A0A0A" transform="translate(14,12)"/>
<path d="M0 0 C0.33 0.66 0.66 1.32 1 2 C1.66 2 2.32 2 3 2 C2.67 2.99 2.34 3.98 2 5 C-0.375 5.1875 -0.375 5.1875 -3 5 C-3.66 4.01 -4.32 3.02 -5 2 C-3.35 1.34 -1.7 0.68 0 0 Z " fill="#EBE3FC" transform="translate(31,19)"/>
<path d="M0 0 C2.3125 -0.25 2.3125 -0.25 5 0 C6.8125 1.8125 6.8125 1.8125 8 4 C8 4.99 8 5.98 8 7 C7.34 7 6.68 7 6 7 C5.6596875 6.0409375 5.6596875 6.0409375 5.3125 5.0625 C4.14749104 2.72806339 4.14749104 2.72806339 1.375 2.25 C0.59125 2.1675 -0.1925 2.085 -1 2 C-0.67 1.34 -0.34 0.68 0 0 Z " fill="#221D2A" transform="translate(19,12)"/>
<path d="M0 0 C0.66 0 1.32 0 2 0 C1.625 1.9375 1.625 1.9375 1 4 C-1.70879335 5.35439668 -4.00933268 5.06501451 -7 5 C-7 4.34 -7 3.68 -7 3 C-5.5459375 2.5359375 -5.5459375 2.5359375 -4.0625 2.0625 C-1.15934208 1.30476658 -1.15934208 1.30476658 0 0 Z " fill="#18161C" transform="translate(24,20)"/>
<path d="M0 0 C0.33 0 0.66 0 1 0 C1.04898437 0.71027344 1.09796875 1.42054687 1.1484375 2.15234375 C1.22320312 3.07144531 1.29796875 3.99054687 1.375 4.9375 C1.44460938 5.85402344 1.51421875 6.77054688 1.5859375 7.71484375 C1.72257813 8.46894531 1.85921875 9.22304688 2 10 C2.66 10.33 3.32 10.66 4 11 C3.67 11.99 3.34 12.98 3 14 C2.01 14 1.02 14 0 14 C0 9.38 0 4.76 0 0 Z " fill="#BFBFBF" transform="translate(13,12)"/>
</svg>
